<mxfile host="app.diagrams.net" agent="Mozilla/5.0 (Windows NT 10.0; Win64; x64) AppleWebKit/537.36 (KHTML, like Gecko) Chrome/134.0.0.0 Safari/537.36" version="26.1.1">
  <diagram name="Página-1" id="YEhuwERLR5NPaVmfIZwW">
    <mxGraphModel dx="1518" dy="655" grid="1" gridSize="10" guides="1" tooltips="1" connect="1" arrows="1" fold="1" page="1" pageScale="1" pageWidth="827" pageHeight="1169" math="0" shadow="0">
      <root>
        <mxCell id="0" />
        <mxCell id="1" parent="0" />
        <mxCell id="NrZ3tpG7QS9_cUEdEob_-2" value="Atendente" style="shape=umlActor;verticalLabelPosition=bottom;verticalAlign=top;html=1;outlineConnect=0;" vertex="1" parent="1">
          <mxGeometry x="200" y="110" width="100" height="160" as="geometry" />
        </mxCell>
        <mxCell id="NrZ3tpG7QS9_cUEdEob_-3" value="" style="rounded=0;whiteSpace=wrap;html=1;" vertex="1" parent="1">
          <mxGeometry x="360" y="70" width="710" height="630" as="geometry" />
        </mxCell>
        <mxCell id="NrZ3tpG7QS9_cUEdEob_-4" value="" style="shape=umlActor;verticalLabelPosition=bottom;verticalAlign=top;html=1;outlineConnect=0;" vertex="1" parent="1">
          <mxGeometry x="200" y="110" width="100" height="160" as="geometry" />
        </mxCell>
        <mxCell id="NrZ3tpG7QS9_cUEdEob_-5" value="Administrador" style="shape=umlActor;verticalLabelPosition=bottom;verticalAlign=top;html=1;outlineConnect=0;" vertex="1" parent="1">
          <mxGeometry x="200" y="400" width="100" height="160" as="geometry" />
        </mxCell>
        <mxCell id="NrZ3tpG7QS9_cUEdEob_-7" value="PESQUISAR PRODUTO" style="ellipse;whiteSpace=wrap;html=1;fillColor=#ffe6cc;strokeColor=#d79b00;fontStyle=1" vertex="1" parent="1">
          <mxGeometry x="440" y="160" width="170" height="80" as="geometry" />
        </mxCell>
        <mxCell id="NrZ3tpG7QS9_cUEdEob_-8" value="&lt;b&gt;ATUALIZAR ESTOQUE&lt;/b&gt;" style="ellipse;whiteSpace=wrap;html=1;fillColor=#ffe6cc;strokeColor=#d79b00;" vertex="1" parent="1">
          <mxGeometry x="810" y="270" width="170" height="80" as="geometry" />
        </mxCell>
        <mxCell id="NrZ3tpG7QS9_cUEdEob_-9" value="&lt;b&gt;GERAR CUPOM FISCAL&lt;/b&gt;" style="ellipse;whiteSpace=wrap;html=1;fillColor=#ffe6cc;strokeColor=#d79b00;" vertex="1" parent="1">
          <mxGeometry x="870" y="180" width="170" height="80" as="geometry" />
        </mxCell>
        <mxCell id="NrZ3tpG7QS9_cUEdEob_-10" value="REGISTRAR VENDA" style="ellipse;whiteSpace=wrap;html=1;fillColor=#ffe6cc;strokeColor=#d79b00;fontStyle=1" vertex="1" parent="1">
          <mxGeometry x="440" y="70" width="170" height="80" as="geometry" />
        </mxCell>
        <mxCell id="NrZ3tpG7QS9_cUEdEob_-11" value="CADASTARAR PRODUTO&amp;nbsp;" style="ellipse;whiteSpace=wrap;html=1;fillColor=#ffe6cc;strokeColor=#d79b00;fontStyle=1" vertex="1" parent="1">
          <mxGeometry x="440" y="250" width="170" height="80" as="geometry" />
        </mxCell>
        <mxCell id="NrZ3tpG7QS9_cUEdEob_-12" value="LOGIN NO SISTEMA" style="ellipse;whiteSpace=wrap;html=1;fillColor=#ffe6cc;strokeColor=#d79b00;fontStyle=1" vertex="1" parent="1">
          <mxGeometry x="440" y="345" width="170" height="80" as="geometry" />
        </mxCell>
        <mxCell id="NrZ3tpG7QS9_cUEdEob_-13" value="CADASTRAR CLIENTE&amp;nbsp;" style="ellipse;whiteSpace=wrap;html=1;fillColor=#ffe6cc;strokeColor=#d79b00;fontStyle=1" vertex="1" parent="1">
          <mxGeometry x="440" y="440" width="170" height="80" as="geometry" />
        </mxCell>
        <mxCell id="NrZ3tpG7QS9_cUEdEob_-14" value="VISUALIZAR ESTOQUE" style="ellipse;whiteSpace=wrap;html=1;fillColor=#ffe6cc;strokeColor=#d79b00;fontStyle=1" vertex="1" parent="1">
          <mxGeometry x="440" y="530" width="170" height="80" as="geometry" />
        </mxCell>
        <mxCell id="NrZ3tpG7QS9_cUEdEob_-15" value="GERAR RELATORIO&amp;nbsp;" style="ellipse;whiteSpace=wrap;html=1;fillColor=#ffe6cc;strokeColor=#d79b00;fontStyle=1" vertex="1" parent="1">
          <mxGeometry x="440" y="620" width="170" height="80" as="geometry" />
        </mxCell>
        <mxCell id="NrZ3tpG7QS9_cUEdEob_-18" value="" style="endArrow=classic;html=1;rounded=0;entryX=0.07;entryY=0.095;entryDx=0;entryDy=0;entryPerimeter=0;" edge="1" parent="1" target="NrZ3tpG7QS9_cUEdEob_-3">
          <mxGeometry width="50" height="50" relative="1" as="geometry">
            <mxPoint x="310" y="200" as="sourcePoint" />
            <mxPoint x="370" y="120" as="targetPoint" />
          </mxGeometry>
        </mxCell>
        <mxCell id="NrZ3tpG7QS9_cUEdEob_-19" value="" style="endArrow=classic;html=1;rounded=0;" edge="1" parent="1" target="NrZ3tpG7QS9_cUEdEob_-7">
          <mxGeometry width="50" height="50" relative="1" as="geometry">
            <mxPoint x="310" y="200" as="sourcePoint" />
            <mxPoint x="440" y="140" as="targetPoint" />
          </mxGeometry>
        </mxCell>
        <mxCell id="NrZ3tpG7QS9_cUEdEob_-23" value="" style="endArrow=classic;html=1;rounded=0;entryX=0;entryY=0.5;entryDx=0;entryDy=0;" edge="1" parent="1" target="NrZ3tpG7QS9_cUEdEob_-11">
          <mxGeometry width="50" height="50" relative="1" as="geometry">
            <mxPoint x="310" y="200" as="sourcePoint" />
            <mxPoint x="480" y="180" as="targetPoint" />
          </mxGeometry>
        </mxCell>
        <mxCell id="NrZ3tpG7QS9_cUEdEob_-24" value="" style="endArrow=classic;html=1;rounded=0;entryX=0;entryY=0.5;entryDx=0;entryDy=0;" edge="1" parent="1" target="NrZ3tpG7QS9_cUEdEob_-12">
          <mxGeometry width="50" height="50" relative="1" as="geometry">
            <mxPoint x="310" y="200" as="sourcePoint" />
            <mxPoint x="490" y="190" as="targetPoint" />
          </mxGeometry>
        </mxCell>
        <mxCell id="NrZ3tpG7QS9_cUEdEob_-26" value="" style="endArrow=classic;html=1;rounded=0;entryX=0;entryY=0.5;entryDx=0;entryDy=0;" edge="1" parent="1" target="NrZ3tpG7QS9_cUEdEob_-11">
          <mxGeometry width="50" height="50" relative="1" as="geometry">
            <mxPoint x="310" y="480" as="sourcePoint" />
            <mxPoint x="410" y="420" as="targetPoint" />
          </mxGeometry>
        </mxCell>
        <mxCell id="NrZ3tpG7QS9_cUEdEob_-27" value="" style="endArrow=classic;html=1;rounded=0;entryX=0;entryY=0.5;entryDx=0;entryDy=0;" edge="1" parent="1" target="NrZ3tpG7QS9_cUEdEob_-13">
          <mxGeometry width="50" height="50" relative="1" as="geometry">
            <mxPoint x="310" y="480" as="sourcePoint" />
            <mxPoint x="430" y="410" as="targetPoint" />
          </mxGeometry>
        </mxCell>
        <mxCell id="NrZ3tpG7QS9_cUEdEob_-28" value="" style="endArrow=classic;html=1;rounded=0;entryX=0;entryY=0.5;entryDx=0;entryDy=0;" edge="1" parent="1" target="NrZ3tpG7QS9_cUEdEob_-14">
          <mxGeometry width="50" height="50" relative="1" as="geometry">
            <mxPoint x="310" y="480" as="sourcePoint" />
            <mxPoint x="430" y="410" as="targetPoint" />
          </mxGeometry>
        </mxCell>
        <mxCell id="NrZ3tpG7QS9_cUEdEob_-29" value="" style="endArrow=classic;html=1;rounded=0;entryX=0;entryY=0.5;entryDx=0;entryDy=0;" edge="1" parent="1" target="NrZ3tpG7QS9_cUEdEob_-15">
          <mxGeometry width="50" height="50" relative="1" as="geometry">
            <mxPoint x="310" y="480" as="sourcePoint" />
            <mxPoint x="430" y="410" as="targetPoint" />
          </mxGeometry>
        </mxCell>
        <mxCell id="NrZ3tpG7QS9_cUEdEob_-30" value="SISTEMA FARMÁCIA VIDA SAUDÁVEL" style="rounded=0;whiteSpace=wrap;html=1;fontStyle=1;fillColor=#dae8fc;strokeColor=#6c8ebf;" vertex="1" parent="1">
          <mxGeometry x="740" y="80" width="250" height="50" as="geometry" />
        </mxCell>
        <mxCell id="NrZ3tpG7QS9_cUEdEob_-40" value="&lt;b&gt;&amp;lt;&amp;lt;Iinclude&amp;gt;&amp;gt;&lt;/b&gt;" style="text;strokeColor=none;fillColor=none;align=left;verticalAlign=middle;spacingLeft=4;spacingRight=4;overflow=hidden;points=[[0,0.5],[1,0.5]];portConstraint=eastwest;rotatable=0;whiteSpace=wrap;html=1;" vertex="1" parent="1">
          <mxGeometry x="690" y="240" width="100" height="30" as="geometry" />
        </mxCell>
        <mxCell id="NrZ3tpG7QS9_cUEdEob_-44" value="&lt;b&gt;AVISAR ESTOQUE BAIXO&lt;/b&gt;" style="ellipse;whiteSpace=wrap;html=1;fillColor=#ffe6cc;strokeColor=#d79b00;" vertex="1" parent="1">
          <mxGeometry x="850" y="425" width="200" height="60" as="geometry" />
        </mxCell>
        <mxCell id="NrZ3tpG7QS9_cUEdEob_-48" value="" style="endArrow=classic;html=1;rounded=0;entryX=0;entryY=0;entryDx=0;entryDy=0;dashed=1;" edge="1" parent="1" target="NrZ3tpG7QS9_cUEdEob_-8">
          <mxGeometry width="50" height="50" relative="1" as="geometry">
            <mxPoint x="610" y="120" as="sourcePoint" />
            <mxPoint x="730" y="120" as="targetPoint" />
          </mxGeometry>
        </mxCell>
        <mxCell id="NrZ3tpG7QS9_cUEdEob_-50" value="" style="endArrow=classic;html=1;rounded=0;entryX=0.5;entryY=1;entryDx=0;entryDy=0;dashed=1;exitX=0.5;exitY=0;exitDx=0;exitDy=0;" edge="1" parent="1" source="NrZ3tpG7QS9_cUEdEob_-44" target="NrZ3tpG7QS9_cUEdEob_-8">
          <mxGeometry width="50" height="50" relative="1" as="geometry">
            <mxPoint x="850" y="328.5" as="sourcePoint" />
            <mxPoint x="1035" y="511.5" as="targetPoint" />
          </mxGeometry>
        </mxCell>
        <mxCell id="NrZ3tpG7QS9_cUEdEob_-51" value="&lt;b&gt;&amp;lt;&amp;lt; extend &amp;gt;&amp;gt;&lt;/b&gt;" style="text;strokeColor=none;fillColor=none;align=left;verticalAlign=middle;spacingLeft=4;spacingRight=4;overflow=hidden;points=[[0,0.5],[1,0.5]];portConstraint=eastwest;rotatable=0;whiteSpace=wrap;html=1;" vertex="1" parent="1">
          <mxGeometry x="827" y="380" width="100" height="30" as="geometry" />
        </mxCell>
        <mxCell id="NrZ3tpG7QS9_cUEdEob_-54" value="" style="endArrow=classic;html=1;rounded=0;entryX=0;entryY=0.5;entryDx=0;entryDy=0;dashed=1;exitX=1;exitY=0.5;exitDx=0;exitDy=0;" edge="1" parent="1" source="NrZ3tpG7QS9_cUEdEob_-10" target="NrZ3tpG7QS9_cUEdEob_-9">
          <mxGeometry width="50" height="50" relative="1" as="geometry">
            <mxPoint x="620" y="108" as="sourcePoint" />
            <mxPoint x="845" y="270" as="targetPoint" />
          </mxGeometry>
        </mxCell>
        <mxCell id="NrZ3tpG7QS9_cUEdEob_-55" value="&lt;b&gt;&amp;lt;&amp;lt;Iinclude&amp;gt;&amp;gt;&lt;/b&gt;" style="text;strokeColor=none;fillColor=none;align=left;verticalAlign=middle;spacingLeft=4;spacingRight=4;overflow=hidden;points=[[0,0.5],[1,0.5]];portConstraint=eastwest;rotatable=0;whiteSpace=wrap;html=1;" vertex="1" parent="1">
          <mxGeometry x="780" y="150" width="80" height="20" as="geometry" />
        </mxCell>
      </root>
    </mxGraphModel>
  </diagram>
</mxfile>
